<svg version="1.1" xmlns="http://www.w3.org/2000/svg" xmlns:xlink="http://www.w3.org/1999/xlink" width="37.375" height="53.4" viewBox="0,0,37.375,53.4"><g transform="translate(-240.90758,-126.504)"><g data-paper-data="{&quot;isPaintingLayer&quot;:true}" fill-rule="evenodd" stroke="none" stroke-width="1" stroke-linecap="round" stroke-linejoin="round" stroke-miterlimit="10" stroke-dasharray="" stroke-dashoffset="0" style="mix-blend-mode: normal"><path d="" data-paper-data="{&quot;origPos&quot;:null}" fill="#000000"/><path d="M278.28258,152.304v1.8c0,17.1 -9.32721,25.8 -18.72057,25.8c-9.26106,0 -18.65443,-8.7 -18.65443,-25.8v-1.8c0,-17.1 9.39337,-25.8 18.65443,-25.8c9.39337,0 18.72057,8.7 18.72057,25.8zM249.52913,152.304v1.8c0,8.025 2.62403,16.99166 10.03287,16.99166c7.475,0 10.66277,-8.96666 10.66277,-16.99166v-1.8c0,-7.95 -3.18777,-16.73334 -10.66277,-16.73334c-7.40885,0 -10.03287,8.78334 -10.03287,16.73334z" data-paper-data="{&quot;origPos&quot;:null}" fill="#ffffff"/></g></g></svg>