<svg version="1.1" xmlns="http://www.w3.org/2000/svg" xmlns:xlink="http://www.w3.org/1999/xlink" width="615.01502" height="615.01502" viewBox="0,0,615.01502,615.01502"><g transform="translate(102.02402,99.51352)"><g data-paper-data="{&quot;isPaintingLayer&quot;:true}" fill-rule="nonzero" stroke="none" stroke-width="0" stroke-linecap="butt" stroke-linejoin="miter" stroke-miterlimit="10" stroke-dasharray="" stroke-dashoffset="0" style="mix-blend-mode: normal"><path d="M-102.02402,207.99399c0,-169.83174 137.67577,-307.50751 307.50751,-307.50751c169.83174,0 307.50751,137.67577 307.50751,307.50751c0,169.83174 -137.67577,307.50751 -307.50751,307.50751c-169.83174,0 -307.50751,-137.67577 -307.50751,-307.50751z" fill="#009cff"/><path d="M-92.56459,206.25225c0,-163.36356 132.43231,-295.7958 295.7958,-295.7958c163.36356,0 295.7958,132.43231 295.7958,295.7958c0,163.36356 -132.43231,295.7958 -295.7958,295.7958c-163.36356,0 -295.7958,-132.43231 -295.7958,-295.7958z" fill="#0080d0"/><path d="M83.1111,200.997c0,-60.12108 48.73777,-108.85886 108.85886,-108.85886c60.12108,0 108.85886,48.73777 108.85886,108.85886c0,60.12108 -48.73777,108.85886 -108.85886,108.85886c-60.12108,0 -108.85886,-48.73777 -108.85886,-108.85886z" fill="#0067a8"/></g></g></svg>