<svg version="1.1" xmlns="http://www.w3.org/2000/svg" xmlns:xlink="http://www.w3.org/1999/xlink" width="32.04545" height="32.78428"><defs><radialGradient cx="240.03806" cy="180.35452" r="12.4559" gradientUnits="userSpaceOnUse" id="color-1"><stop offset="0" stop-color="#ffffff"/><stop offset="1" stop-color="#ffffff" stop-opacity="0"/></radialGradient><linearGradient x1="239.95456" y1="179.95087" x2="256.00001" y2="179.95087" gradientUnits="userSpaceOnUse" id="color-2"><stop offset="0" stop-color="#ffffff"/><stop offset="1" stop-color="#ffffff" stop-opacity="0"/></linearGradient><linearGradient x1="240.00002" y1="180.01884" x2="223.95456" y2="180.01884" gradientUnits="userSpaceOnUse" id="color-3"><stop offset="0" stop-color="#ffffff"/><stop offset="1" stop-color="#ffffff" stop-opacity="0"/></linearGradient><linearGradient x1="239.99833" y1="179.95035" x2="247.70271" y2="194.02511" gradientUnits="userSpaceOnUse" id="color-4"><stop offset="0" stop-color="#ffffff"/><stop offset="1" stop-color="#ffffff" stop-opacity="0"/></linearGradient><linearGradient x1="239.96053" y1="180.02285" x2="232.25616" y2="165.94809" gradientUnits="userSpaceOnUse" id="color-5"><stop offset="0" stop-color="#ffffff"/><stop offset="1" stop-color="#ffffff" stop-opacity="0"/></linearGradient><linearGradient x1="239.93871" y1="179.95035" x2="232.23434" y2="194.02512" gradientUnits="userSpaceOnUse" id="color-6"><stop offset="0" stop-color="#ffffff"/><stop offset="1" stop-color="#ffffff" stop-opacity="0"/></linearGradient><linearGradient x1="239.97651" y1="180.02285" x2="247.68089" y2="165.94809" gradientUnits="userSpaceOnUse" id="color-7"><stop offset="0" stop-color="#ffffff"/><stop offset="1" stop-color="#ffffff" stop-opacity="0"/></linearGradient></defs><g transform="translate(-223.95456,-163.61439)"><g data-paper-data="{&quot;isPaintingLayer&quot;:true}" fill="none" fill-rule="nonzero" stroke="none" stroke-width="0" stroke-linecap="none" stroke-linejoin="miter" stroke-miterlimit="10" stroke-dasharray="" stroke-dashoffset="0" font-family="none" font-weight="none" font-size="none" text-anchor="none" style="mix-blend-mode: normal"><path d="M252.37422,180.35452c0,6.87921 -5.52308,12.4559 -12.33614,12.4559c-6.81306,0 -12.33614,-5.5767 -12.33614,-12.4559c0,-6.87921 5.52308,-12.4559 12.33614,-12.4559c6.81306,0 12.33614,5.5767 12.33614,12.4559z" data-paper-data="{&quot;origPos&quot;:null}" fill="url(#color-1)" stroke-linecap="butt"/><g data-paper-data="{&quot;origPos&quot;:null}" stroke-linecap="round"><path d="M256.00001,184.89415l-16.04545,-5.02802l16,-4.85854" data-paper-data="{&quot;origPos&quot;:null}" fill="url(#color-2)"/><path d="M224.00002,175.07556l16,4.85854l-16.04545,5.02802" data-paper-data="{&quot;origPos&quot;:null,&quot;index&quot;:null}" fill="url(#color-3)"/></g><g data-paper-data="{&quot;origPos&quot;:null,&quot;origRot&quot;:0}" stroke-linecap="round"><path d="M243.36656,196.39868l-3.29389,-16.48902l11.94437,11.70202" data-paper-data="{&quot;origPos&quot;:null}" fill="url(#color-4)"/><path d="M236.61413,163.61439l3.42073,16.36777l-12.11486,-11.66052" data-paper-data="{&quot;origPos&quot;:null,&quot;index&quot;:null}" fill="url(#color-5)"/></g><g data-paper-data="{&quot;origPos&quot;:null,&quot;origRot&quot;:0,&quot;index&quot;:null}" stroke-linecap="round"><path d="M227.92001,191.61168l11.94438,-11.70202l-3.29389,16.48901" data-paper-data="{&quot;origPos&quot;:null}" fill="url(#color-6)"/><path d="M252.01704,168.32165l-12.11486,11.66052l3.42074,-16.36777" data-paper-data="{&quot;origPos&quot;:null,&quot;index&quot;:null}" fill="url(#color-7)"/></g></g></g></svg>