<svg version="1.1" xmlns="http://www.w3.org/2000/svg" xmlns:xlink="http://www.w3.org/1999/xlink" width="80.41916" height="79" viewBox="0,0,80.41916,79"><defs><radialGradient cx="13.5" cy="358" r="40.20958" gradientUnits="userSpaceOnUse" id="color-1"><stop offset="0" stop-color="#fff41c"/><stop offset="1" stop-color="#fff41c" stop-opacity="0"/></radialGradient></defs><g transform="translate(26.70958,-318.5)"><g data-paper-data="{&quot;isPaintingLayer&quot;:true}" stroke="none" stroke-miterlimit="10" stroke-dasharray="" stroke-dashoffset="0" style="mix-blend-mode: normal"><g><path d="M53.70958,358c0,21.81525 -18.00244,39.5 -40.20958,39.5c-22.20714,0 -40.20958,-17.68475 -40.20958,-39.5c0,-21.81525 18.00244,-39.5 40.20958,-39.5c22.20714,0 40.20958,17.68475 40.20958,39.5z" fill="url(#color-1)" fill-rule="nonzero" stroke-width="0" stroke-linecap="butt" stroke-linejoin="miter"/><path d="M-10.62848,357.19997c0,-12.33035 9.99568,-22.32602 22.32602,-22.32602c12.33035,0 22.32602,9.99568 22.32602,22.32602c0,12.33035 -9.99568,22.32602 -22.32602,22.32602c-12.33035,0 -22.32602,-9.99568 -22.32602,-22.32602z" fill="#ffee00" fill-rule="evenodd" stroke-width="1" stroke-linecap="round" stroke-linejoin="round"/><path d="M-5.65043,356.99583c0,-9.49623 7.69799,-17.19424 17.19418,-17.19424c9.49623,0 17.19424,7.69799 17.19424,17.19424c0,9.49623 -7.69799,17.19418 -17.19424,17.19418c-9.49623,0 -17.19418,-7.69799 -17.19418,-17.19418z" fill="#f2e81b" fill-rule="evenodd" stroke-width="1" stroke-linecap="round" stroke-linejoin="round"/></g></g></g></svg>