<svg version="1.1" xmlns="http://www.w3.org/2000/svg" xmlns:xlink="http://www.w3.org/1999/xlink" width="137.82031" height="129.84723" viewBox="0,0,137.82031,129.84723"><g transform="translate(-309.4729,-56.89865)"><g data-paper-data="{&quot;isPaintingLayer&quot;:true}" stroke="none" stroke-miterlimit="10" stroke-dasharray="" stroke-dashoffset="0" style="mix-blend-mode: normal"><path d="M352.541,151.39857c0,0 -3.95801,-2.45678 -3.95801,-9.63114c0,-13.64741 0,-33.76205 0,-41.69098c0,-5.95352 4.7496,-9.89501 4.7496,-9.89501c0,0 3.5682,-3.43027 10.02695,-3.43027c7.63156,0 26.15721,0 39.31617,0c3.70761,0 8.34612,0.81168 10.55468,3.95801c2.51124,3.57754 3.69414,6.51139 3.69414,9.10341c0,7.5431 0,27.48248 0,41.16325c0,0.35615 -0.13219,3.37577 -0.93746,5.94029c-0.62212,1.98125 -1.96508,3.69086 -1.96508,3.69086c0,0 -3.28427,4.48574 -11.34628,4.48574c-13.6014,0 -33.02738,0 -40.63551,0c-6.00031,0 -9.49919,-3.69415 -9.49919,-3.69415z" fill="#00e6ff" fill-rule="nonzero" stroke-width="0" stroke-linecap="butt" stroke-linejoin="miter"/><text transform="translate(309.7229,180.74588) scale(0.5,0.5)" font-size="40" xml:space="preserve" fill="#ffffff" fill-rule="nonzero" stroke="none" stroke-width="1" stroke-linecap="butt" stroke-linejoin="miter" stroke-miterlimit="10" stroke-dasharray="" stroke-dashoffset="0" font-family="Sans Serif" font-weight="normal" text-anchor="start" style="mix-blend-mode: normal"><tspan x="0" dy="0">Colourful Coin</tspan></text><path d="M350.73763,121.0993c0,-17.95487 14.55523,-32.51009 32.51009,-32.51009c17.95487,0 32.51009,14.55523 32.51009,32.51009c0,17.95487 -14.55523,32.51009 -32.51009,32.51009c-17.95487,0 -32.51009,-14.55523 -32.51009,-32.51009z" fill="#0042ff" fill-rule="evenodd" stroke-width="1" stroke-linecap="round" stroke-linejoin="round"/><path d="M357.98643,120.80204c0,-13.82796 11.20945,-25.03743 25.03735,-25.03743c13.82796,0 25.03743,11.20945 25.03743,25.03743c0,13.82796 -11.20945,25.03735 -25.03743,25.03735c-13.82796,0 -25.03735,-11.20945 -25.03735,-25.03735z" fill="#1badf2" fill-rule="evenodd" stroke-width="1" stroke-linecap="round" stroke-linejoin="round"/><text transform="translate(359.36937,78.64865) scale(0.5,0.5)" font-size="40" xml:space="preserve" fill="#ffffff" fill-rule="nonzero" stroke="none" stroke-width="1" stroke-linecap="butt" stroke-linejoin="miter" stroke-miterlimit="10" stroke-dasharray="" stroke-dashoffset="0" font-family="Sans Serif" font-weight="normal" text-anchor="start" style="mix-blend-mode: normal"><tspan x="0" dy="0">$100</tspan></text></g></g></svg>