<svg version="1.1" xmlns="http://www.w3.org/2000/svg" xmlns:xlink="http://www.w3.org/1999/xlink" width="170" height="167" viewBox="0,0,170,167"><defs><radialGradient cx="216.5" cy="207" r="85" gradientUnits="userSpaceOnUse" id="color-1"><stop offset="0" stop-color="#fff41c"/><stop offset="1" stop-color="#fff41c" stop-opacity="0"/></radialGradient></defs><g transform="translate(-131.5,-123.5)"><g data-paper-data="{&quot;isPaintingLayer&quot;:true}" stroke="none" stroke-miterlimit="10" stroke-dasharray="" stroke-dashoffset="0" style="mix-blend-mode: normal"><path d="M301.5,207c0,46.11578 -38.0558,83.5 -85,83.5c-46.9442,0 -85,-37.38422 -85,-83.5c0,-46.11578 38.0558,-83.5 85,-83.5c46.9442,0 85,37.38422 85,83.5z" fill="url(#color-1)" fill-rule="nonzero" stroke-width="0" stroke-linecap="butt" stroke-linejoin="miter"/><path d="M165.49422,205.3088c0,-26.06542 21.13011,-47.19552 47.19552,-47.19552c26.06542,0 47.19552,21.13011 47.19552,47.19552c0,26.06542 -21.13011,47.19552 -47.19552,47.19552c-26.06542,0 -47.19552,-21.13011 -47.19552,-47.19552z" fill="#ffee00" fill-rule="evenodd" stroke-width="1" stroke-linecap="round" stroke-linejoin="round"/><path d="M176.01744,204.87727c0,-20.07431 16.27297,-36.34731 36.3472,-36.34731c20.07431,0 36.34731,16.27297 36.34731,36.34731c0,20.07431 -16.27297,36.3472 -36.34731,36.3472c-20.07431,0 -36.3472,-16.27297 -36.3472,-36.3472z" fill="#f2e81b" fill-rule="evenodd" stroke-width="1" stroke-linecap="round" stroke-linejoin="round"/></g></g></svg>