<svg version="1.1" xmlns="http://www.w3.org/2000/svg" xmlns:xlink="http://www.w3.org/1999/xlink" width="615.01502" height="615.01502" viewBox="0,0,615.01502,615.01502"><g transform="translate(102.02402,99.51352)"><g data-paper-data="{&quot;isPaintingLayer&quot;:true}" fill-rule="nonzero" stroke="none" stroke-width="0" stroke-linecap="butt" stroke-linejoin="miter" stroke-miterlimit="10" stroke-dasharray="" stroke-dashoffset="0" style="mix-blend-mode: normal"><path d="M-102.02402,207.99399c0,-169.83174 137.67577,-307.50751 307.50751,-307.50751c169.83174,0 307.50751,137.67577 307.50751,307.50751c0,169.83174 -137.67577,307.50751 -307.50751,307.50751c-169.83174,0 -307.50751,-137.67577 -307.50751,-307.50751z" fill="#009cff"/><path d="M-92.56459,206.25225c0,-163.36356 132.43231,-295.7958 295.7958,-295.7958c163.36356,0 295.7958,132.43231 295.7958,295.7958c0,163.36356 -132.43231,295.7958 -295.7958,295.7958c-163.36356,0 -295.7958,-132.43231 -295.7958,-295.7958z" fill="#0080d0"/><path d="M-80.55258,216.01201c0,-157.14407 127.39045,-284.53454 284.53454,-284.53454c157.14407,0 284.53454,127.39045 284.53454,284.53454c0,157.14407 -127.39045,284.53454 -284.53454,284.53454c-157.14407,0 -284.53454,-127.39045 -284.53454,-284.53454z" fill="#0067a8"/></g></g></svg>