<svg version="1.1" xmlns="http://www.w3.org/2000/svg" xmlns:xlink="http://www.w3.org/1999/xlink" width="64.58183" height="64.58184" viewBox="0,0,64.58183,64.58184"><g transform="translate(15.54545,-29.38181)"><g data-paper-data="{&quot;isPaintingLayer&quot;:true}" fill-rule="nonzero" stroke="none" stroke-linecap="butt" stroke-linejoin="miter" stroke-miterlimit="10" stroke-dasharray="" stroke-dashoffset="0" style="mix-blend-mode: normal"><g><path d="M-11.80518,90.47273c0,0 -3.74027,-2.32162 -3.74027,-9.1013c0,-12.89662 0,-31.90468 0,-39.39741c0,-5.626 4.48831,-9.35065 4.48831,-9.35065c0,0 3.3719,-3.24156 9.47533,-3.24156c7.21172,0 24.71821,0 37.15325,0c3.50364,0 7.88697,0.76703 9.97403,3.74027c2.37309,3.38073 3.49091,6.15317 3.49091,8.6026c0,7.12813 0,25.97057 0,38.89871c0,0.33656 -0.12492,3.19006 -0.88589,5.61349c-0.58789,1.87225 -1.85697,3.48781 -1.85697,3.48781c0,0 -3.10359,4.23896 -10.72208,4.23896c-12.85314,0 -31.21043,0 -38.40001,0c-5.67021,0 -8.97661,-3.49092 -8.97661,-3.49092z" fill="#27e300" stroke-width="0"/><text transform="translate(-7.14546,67.01819) scale(0.5,0.5)" font-size="40" xml:space="preserve" fill="#ffffff" fill-rule="nonzero" stroke="none" stroke-width="1" stroke-linecap="butt" stroke-linejoin="miter" stroke-miterlimit="10" stroke-dasharray="" stroke-dashoffset="0" font-family="Sans Serif" font-weight="normal" text-anchor="start" style="mix-blend-mode: normal"><tspan x="0" dy="0">Shop</tspan></text></g></g></g></svg>