<svg version="1.1" xmlns="http://www.w3.org/2000/svg" xmlns:xlink="http://www.w3.org/1999/xlink" width="550.58176" height="550.58185" viewBox="0,0,550.58176,550.58185"><g transform="translate(74.29088,51.29092)"><g data-paper-data="{&quot;isPaintingLayer&quot;:true}" fill-rule="nonzero" stroke="none" stroke-linecap="butt" stroke-linejoin="miter" stroke-miterlimit="10" stroke-dasharray="" stroke-dashoffset="0" style="mix-blend-mode: normal"><path d="M-42.40382,469.52966c0,0 -31.88706,-19.79259 -31.88706,-77.59163c0,-109.94801 0,-271.99809 0,-335.87613c0,-47.96354 38.26435,-79.71743 38.26435,-79.71743c0,0 28.74658,-27.63539 80.78037,-27.63539c61.48233,0 210.73103,0 316.74391,0c29.86971,0 67.23906,6.53919 85.03195,31.88706c20.23139,28.82186 29.76118,52.45784 29.76118,73.34005c0,60.7697 0,221.40782 0,331.62455c0,2.86929 -1.06498,27.19633 -7.55251,47.85688c-5.01196,15.96156 -15.83129,29.73475 -15.83129,29.73475c0,0 -26.45915,36.13856 -91.40933,36.13856c-109.57733,0 -266.07938,0 -327.37296,0c-48.34044,0 -76.52861,-29.76126 -76.52861,-29.76126z" fill="#e2e2e2" stroke-width="0"/><path d="M68.80273,356.88502c0,0 -17.97349,-11.15631 -17.97349,-43.73539c0,-61.97342 0,-153.31476 0,-189.32032c0,-27.03518 21.56812,-44.93361 21.56812,-44.93361c0,0 16.20333,-15.57699 45.53275,-15.57699c34.6552,0 118.78089,0 178.53624,0c16.83639,0 37.90005,3.68588 47.92921,17.97349c11.40365,16.24576 16.77522,29.56845 16.77522,41.33894c0,34.25352 0,124.79898 0,186.92387c0,1.6173 -0.60029,15.32951 -4.25705,26.97507c-2.82505,8.99691 -8.92349,16.76032 -8.92349,16.76032c0,0 -14.91399,20.3699 -51.52388,20.3699c-61.76448,0 -149.97861,0 -184.52742,0c-27.24763,0 -43.1362,-16.77527 -43.1362,-16.77527z" fill="#9b9b9b" stroke-width="0"/><text transform="translate(123.82037,129.28472) scale(1.41099,1.41099)" font-size="40" xml:space="preserve" fill="#ffffff" fill-rule="nonzero" stroke="none" stroke-width="1" stroke-linecap="butt" stroke-linejoin="miter" stroke-miterlimit="10" stroke-dasharray="" stroke-dashoffset="0" font-family="Sans Serif" font-weight="normal" text-anchor="start" style="mix-blend-mode: normal"><tspan x="0" dy="0">Shop</tspan></text></g></g></svg>