<svg version="1.1" xmlns="http://www.w3.org/2000/svg" xmlns:xlink="http://www.w3.org/1999/xlink" width="960" height="720" viewBox="0,0,960,720"><g transform="translate(240,180)"><g data-paper-data="{&quot;isPaintingLayer&quot;:true}" fill="#ad9345" fill-rule="evenodd" stroke="none" stroke-width="1" stroke-linecap="butt" stroke-linejoin="round" stroke-miterlimit="1.41421" stroke-dasharray="" stroke-dashoffset="0" style="mix-blend-mode: normal"><path d="M720,-148.696v31.305l-840,657.391h-40zM720,-86.087v31.304l-760,594.783h-40zM720,-23.478v31.304l-680,532.174h-40zM720,39.13v31.305l-600,469.565h-40zM720,101.739v31.304l-520,406.957h-40zM720,164.348v31.304l-440,344.348h-40zM720,226.957v31.304l-360,281.739h-40zM720,289.565v31.305l-280,219.13h-40zM720,352.174v31.304l-200,156.522h-40zM720,414.783v31.304l-120,93.913h-40zM720,477.391v31.305l-40,31.304h-40zM-200,540h-40l920,-720h40zM-240,508.696v-31.305l840,-657.391h40zM-240,446.087v-31.304l760,-594.783h40zM-240,383.478v-31.304l680,-532.174h40zM-240,320.87v-31.305l600,-469.565h40zM-240,258.261v-31.304l520,-406.957h40zM-240,195.652v-31.304l440,-344.348h40zM-240,133.043v-31.304l360,-281.739h40zM-240,70.435v-31.305l280,-219.13h40zM-240,7.826v-31.304l200,-156.522h40zM-240,-54.783v-31.304l120,-93.913h40zM-240,-117.391v-31.305l40,-31.304h40z"/></g></g></svg>