<svg version="1.1" xmlns="http://www.w3.org/2000/svg" xmlns:xlink="http://www.w3.org/1999/xlink" width="202.18406" height="101.85378" viewBox="0,0,202.18406,101.85378"><defs><radialGradient cx="379.86637" cy="120.76276" r="26.69607" gradientUnits="userSpaceOnUse" id="color-1"><stop offset="0" stop-color="#fff41c"/><stop offset="1" stop-color="#fff41c" stop-opacity="0"/></radialGradient></defs><g transform="translate(-333.75376,-86.1832)"><g data-paper-data="{&quot;isPaintingLayer&quot;:true}" stroke-miterlimit="10" stroke-dasharray="" stroke-dashoffset="0" style="mix-blend-mode: normal"><path d="M352.541,151.39857c0,0 -3.95801,-2.45678 -3.95801,-9.63114c0,-13.64741 0,-33.76205 0,-41.69098c0,-5.95352 4.7496,-9.89501 4.7496,-9.89501c0,0 3.5682,-3.43027 10.02695,-3.43027c7.63156,0 26.15721,0 39.31617,0c3.70761,0 8.34612,0.81168 10.55468,3.95801c2.51124,3.57754 3.69414,6.51139 3.69414,9.10341c0,7.5431 0,27.48248 0,41.16325c0,0.35615 -0.13219,3.37577 -0.93746,5.94029c-0.62212,1.98125 -1.96508,3.69086 -1.96508,3.69086c0,0 -3.28427,4.48574 -11.34628,4.48574c-13.6014,0 -33.02738,0 -40.63551,0c-6.00031,0 -9.49919,-3.69415 -9.49919,-3.69415z" fill="#767676" fill-rule="nonzero" stroke="none" stroke-width="0" stroke-linecap="butt" stroke-linejoin="miter"/><text transform="translate(334.25376,182.03698) scale(0.5,0.5)" font-size="40" xml:space="preserve" fill="#ffffff" fill-rule="nonzero" stroke="none" stroke-width="1" stroke-linecap="butt" stroke-linejoin="miter" stroke-miterlimit="10" stroke-dasharray="" stroke-dashoffset="0" font-family="Sans Serif" font-weight="normal" text-anchor="start" style="mix-blend-mode: normal"><tspan x="0" dy="0">Auto Clicker</tspan></text><g stroke="none"><path d="M406.56243,120.76276c0,14.48365 -11.95223,26.22496 -26.69607,26.22496c-14.74383,0 -26.69607,-11.74131 -26.69607,-26.22496c0,-14.48365 11.95223,-26.22496 26.69607,-26.22496c14.74383,0 26.69607,11.74131 26.69607,26.22496z" fill="url(#color-1)" fill-rule="nonzero" stroke-width="0" stroke-linecap="butt" stroke-linejoin="miter"/><path d="M363.84691,120.2316c0,-8.1864 6.63636,-14.82276 14.82276,-14.82276c8.1864,0 14.82276,6.63636 14.82276,14.82276c0,8.1864 -6.63636,14.82276 -14.82276,14.82276c-8.1864,0 -14.82276,-6.63636 -14.82276,-14.82276z" fill="#ffee00" fill-rule="evenodd" stroke-width="1" stroke-linecap="round" stroke-linejoin="round"/><path d="M367.15195,120.09607c0,-6.30477 5.11087,-11.41565 11.41561,-11.41565c6.30477,0 11.41565,5.11087 11.41565,11.41565c0,6.30477 -5.11087,11.41561 -11.41565,11.41561c-6.30477,0 -11.41561,-5.11087 -11.41561,-11.41561z" fill="#f2e81b" fill-rule="evenodd" stroke-width="1" stroke-linecap="round" stroke-linejoin="round"/></g><g data-paper-data="{&quot;origRot&quot;:0}" fill-rule="nonzero" stroke-width="3.5" stroke-linecap="round" stroke-linejoin="miter"><path d="M396.46053,147.86949c-2.31562,0.45496 -18.6973,-30.50085 -16.70472,-32.99378c1.72474,-2.15783 34.98247,6.51601 35.58755,9.33132c0.56959,2.65018 -12.38596,4.43085 -12.15188,4.98171c0.28178,0.66312 10.5872,3.68725 11.13048,5.05152c0.56679,1.42333 -4.25742,8.55001 -5.96631,8.72017c-1.1764,0.11714 -9.1737,-7.59778 -9.81437,-7.38063c-0.86437,0.29297 0.28923,11.82404 -2.08077,12.28968z" data-paper-data="{&quot;origPos&quot;:null,&quot;origRot&quot;:0}" fill="#a0a0a0" stroke="#a0a0a0"/><path d="M396.57382,145.01531c-2.31562,0.45496 -18.6973,-30.50085 -16.70472,-32.99378c1.72474,-2.15783 34.98247,6.51601 35.58755,9.33132c0.56959,2.65018 -12.38596,4.43085 -12.15188,4.98171c0.28178,0.66312 10.5872,3.68725 11.13048,5.05152c0.56679,1.42333 -4.25742,8.55001 -5.96631,8.72017c-1.1764,0.11714 -9.1737,-7.59778 -9.81437,-7.38063c-0.86437,0.29297 0.28923,11.82404 -2.08077,12.28968z" data-paper-data="{&quot;origPos&quot;:null,&quot;origRot&quot;:0}" fill="#ffffff" stroke="#c9c9c9"/></g><text transform="translate(391.65689,107.9332) scale(0.5,0.5)" font-size="40" xml:space="preserve" fill="#ffffff" fill-rule="nonzero" stroke="none" stroke-width="1" stroke-linecap="butt" stroke-linejoin="miter" stroke-miterlimit="10" stroke-dasharray="" stroke-dashoffset="0" font-family="Sans Serif" font-weight="normal" text-anchor="start" style="mix-blend-mode: normal"><tspan x="0" dy="0">+1</tspan></text><text transform="translate(438.20344,133.45872) scale(0.5,0.5)" font-size="40" xml:space="preserve" fill="#ffffff" fill-rule="nonzero" stroke="none" stroke-width="1" stroke-linecap="butt" stroke-linejoin="miter" stroke-miterlimit="10" stroke-dasharray="" stroke-dashoffset="0" font-family="Sans Serif" font-weight="normal" text-anchor="start" style="mix-blend-mode: normal"><tspan x="0" dy="0">$1000,000</tspan></text></g></g></svg>