<svg version="1.1" xmlns="http://www.w3.org/2000/svg" xmlns:xlink="http://www.w3.org/1999/xlink" width="31.96529" height="27.001" viewBox="0,0,31.96529,27.001"><g transform="translate(16.77703,-46.6327)"><g data-paper-data="{&quot;isPaintingLayer&quot;:true}" fill-rule="nonzero" stroke-linejoin="miter" stroke-miterlimit="10" stroke-dasharray="" stroke-dashoffset="0" style="mix-blend-mode: normal"><path d="" fill="#000000" stroke="none" stroke-width="0" stroke-linecap="butt"/><path d="" fill="#000000" stroke="none" stroke-width="0" stroke-linecap="butt"/><path d="M-16.77703,63.83368c0,-1.84319 0,-6.06465 0,-7.2c0,-0.55929 0.45497,-1.35757 1.18182,-1.35757c1.61214,0 8.11516,-0.06667 8.11516,-0.06667l0.06667,9.64848c0,0 -6.81832,0.06667 -8.38182,0.06667c-0.145,0 -0.98182,-0.66553 -0.98182,-1.09091z" fill="#000000" stroke="#000000" stroke-width="0" stroke-linecap="butt"/><path d="M-11.19521,64.96701l-0.2,-9.6l8.86667,-8.73334c0,0 1.63735,-0.04788 1.68849,0.52544c0.03694,0.41419 0.44056,19.04638 0.09454,25.20694c-0.07243,1.28949 -1.51636,1.26762 -1.51636,1.26762z" fill="#000000" stroke="#000000" stroke-width="0" stroke-linecap="butt"/><path d="M1.52036,56.51049c0,0 1.69829,1.04598 2.43085,2.34622c0.53879,0.95631 0.03164,2.35509 -0.21102,2.84233c-0.63015,1.2653 -2.32825,2.0664 -2.32825,2.0664" fill="none" stroke="#000000" stroke-width="2.5" stroke-linecap="round"/><path d="M4.65369,52.44382c0,0 3.36496,2.48526 4.09751,5.24316c0.53879,2.0284 -0.10169,4.59531 -0.34435,5.62879c-0.63016,2.6838 -3.86158,4.51632 -3.86158,4.51632" fill="none" stroke="#000000" stroke-width="2.5" stroke-linecap="round"/><path d="M7.48526,48.98229c0,0 5.29934,3.60335 6.45301,7.60202c0.84851,2.94097 -0.16016,6.66271 -0.54231,8.16115c-0.99241,3.89122 -6.08146,6.54818 -6.08146,6.54818" fill="none" stroke="#000000" stroke-width="2.5" stroke-linecap="round"/></g></g></svg>