<svg version="1.1" xmlns="http://www.w3.org/2000/svg" xmlns:xlink="http://www.w3.org/1999/xlink" width="34.91517" height="53.025" viewBox="0,0,34.91517,53.025"><g transform="translate(-240.13594,-127.104)"><g data-paper-data="{&quot;isPaintingLayer&quot;:true}" fill="#ffffff" fill-rule="evenodd" stroke="none" stroke-width="1" stroke-linecap="round" stroke-linejoin="round" stroke-miterlimit="10" stroke-dasharray="" stroke-dashoffset="0" style="mix-blend-mode: normal"><path d="M274.90111,142.854c0,6.6 -4.425,10.2 -13.8,19.35l-9.525,9.225h19.2c2.325,0 4.275,1.875 4.275,4.35c0,2.475 -1.95,4.35 -4.275,4.35h-22.8c-6.975,0 -10.5,-7.35 -5.475,-12.3l8.775,-8.475c9.825,-9.525 13.725,-12.525 13.725,-17.025c0,-4.95 -4.275,-6.6 -7.2,-6.6c-2.625,0 -6.3,1.2 -7.65,5.775c-0.525,1.95 -2.475,3.75 -5.025,3.75c-3.6,0 -5.175,-3.225 -4.125,-6.975c1.95,-6 7.575,-11.175 16.35,-11.175c10.5,0 17.55,7.5 17.55,15.75z" data-paper-data="{&quot;origPos&quot;:null}"/></g></g></svg>