<svg version="1.1" xmlns="http://www.w3.org/2000/svg" xmlns:xlink="http://www.w3.org/1999/xlink" width="36.9325" height="44.49628" viewBox="0,0,36.9325,44.49628"><g transform="translate(-110.48664,-162.50958)"><g data-paper-data="{&quot;isPaintingLayer&quot;:true}" fill-rule="nonzero" stroke-width="3.5" stroke-linecap="round" stroke-linejoin="miter" stroke-miterlimit="10" stroke-dasharray="" stroke-dashoffset="0" style="mix-blend-mode: normal"><g data-paper-data="{&quot;origRot&quot;:0}"><path d="M112.83078,197.83042c-1.65322,-1.68403 15.19627,-32.38772 18.37414,-32.09405c2.7507,0.25419 13.79178,32.80272 11.77291,34.85607c-1.90045,1.93292 -10.51117,-7.90948 -10.84258,-7.41107c-0.39896,0.59997 2.7413,10.8706 1.90047,12.0745c-0.87723,1.25602 -9.48248,1.14494 -10.56421,-0.1889c-0.74467,-0.91821 1.30226,-11.84007 0.76862,-12.25581c-0.71997,-0.5609 -9.71731,6.74281 -11.40935,5.01923z" data-paper-data="{&quot;origPos&quot;:null,&quot;origRot&quot;:0}" fill="#a0a0a0" stroke="#a0a0a0"/><path d="M115.2771,196.35573c-1.65322,-1.68403 15.19627,-32.38772 18.37414,-32.09405c2.7507,0.25419 13.79178,32.80272 11.77291,34.85607c-1.90045,1.93292 -10.51117,-7.90948 -10.84258,-7.41107c-0.39896,0.59997 2.7413,10.8706 1.90047,12.0745c-0.87723,1.25602 -9.48248,1.14494 -10.56421,-0.1889c-0.74467,-0.91821 1.30226,-11.84007 0.76862,-12.25581c-0.71997,-0.5609 -9.71731,6.74281 -11.40935,5.01923z" data-paper-data="{&quot;origPos&quot;:null,&quot;origRot&quot;:0}" fill="#ffffff" stroke="#c9c9c9"/></g></g></g></svg>