<svg version="1.1" xmlns="http://www.w3.org/2000/svg" xmlns:xlink="http://www.w3.org/1999/xlink" width="29.73272" height="27.001" viewBox="0,0,29.73272,27.001"><g transform="translate(16.77703,-46.63269)"><g data-paper-data="{&quot;isPaintingLayer&quot;:true}" fill-rule="nonzero" stroke-linejoin="miter" stroke-miterlimit="10" stroke-dasharray="" stroke-dashoffset="0" style="mix-blend-mode: normal"><path d="" fill="#000000" stroke="none" stroke-width="0" stroke-linecap="butt"/><path d="" fill="#000000" stroke="none" stroke-width="0" stroke-linecap="butt"/><path d="M-16.77703,63.83368c0,-1.84319 0,-6.06465 0,-7.2c0,-0.55929 0.45497,-1.35757 1.18182,-1.35757c1.61214,0 8.11516,-0.06667 8.11516,-0.06667l0.06667,9.64848c0,0 -6.81832,0.06667 -8.38182,0.06667c-0.145,0 -0.98182,-0.66553 -0.98182,-1.09091z" fill="#000000" stroke="#000000" stroke-width="0" stroke-linecap="butt"/><path d="M-11.19521,64.96701l-0.2,-9.6l8.86667,-8.73334c0,0 1.63735,-0.04788 1.68849,0.52544c0.03694,0.41419 0.44056,19.04638 0.09454,25.20694c-0.07243,1.28949 -1.51636,1.26762 -1.51636,1.26762z" fill="#000000" stroke="#000000" stroke-width="0" stroke-linecap="butt"/><g fill="none" stroke="#000000" stroke-width="2.5" stroke-linecap="round"><path d="M11.28393,56.64988l-8.43537,8.43537"/><path d="M3.27032,56.64988l8.43537,8.43537" data-paper-data="{&quot;index&quot;:null}"/></g></g></g></svg>